<?xml version="1.0" standalone="no"?>
<!DOCTYPE svg PUBLIC "-//W3C//DTD SVG 20010904//EN"
 "http://www.w3.org/TR/2001/REC-SVG-20010904/DTD/svg10.dtd">
<svg version="1.0" xmlns="http://www.w3.org/2000/svg"
 width="193.000000pt" height="193.000000pt" viewBox="0 0 193.000000 193.000000"
 preserveAspectRatio="xMidYMid meet">
<metadata>
Created by potrace 1.14, written by Peter Selinger 2001-2017
</metadata>
<g transform="translate(0.000000,193.000000) scale(0.100000,-0.100000)"
fill="#000000" stroke="none">
<path d="M89 1518 c-1 -2 -2 -245 -3 -540 l-1 -538 55 -1 c54 0 217 0 275 1
l30 0 1 65 1 65 -107 0 -107 0 -1 179 0 178 89 0 c49 0 92 3 96 6 5 6 7 71 4
115 -1 9 -27 12 -95 12 l-93 0 -1 159 c-1 115 3 160 11 163 7 3 54 4 104 4 55
-1 94 3 96 9 2 5 3 35 3 65 l-1 55 -177 3 c-98 1 -179 1 -179 0z"/>
<path d="M468 1515 c-2 -3 6 -45 18 -93 13 -49 25 -99 28 -113 2 -13 21 -91
41 -174 l36 -150 -67 -268 c-37 -147 -64 -270 -61 -273 9 -9 117 -8 126 2 4 5
27 93 51 196 24 103 46 185 49 182 3 -2 22 -88 42 -190 20 -102 40 -188 43
-191 7 -7 126 -6 133 0 3 4 -47 226 -103 462 -17 67 -13 99 26 258 23 93 43
176 45 185 2 10 10 45 19 78 25 96 26 94 -48 94 -74 0 -65 12 -96 -130 -23
-102 -24 -106 -41 -190 -13 -59 -24 -81 -26 -52 -1 9 -18 93 -37 185 -20 93
-36 173 -36 178 0 9 -133 13 -142 4z"/>
<path d="M959 1508 c-1 -7 -2 -250 -3 -541 -1 -522 -1 -527 19 -528 11 0 89 0
174 0 251 1 263 14 262 283 0 99 -4 182 -11 197 -12 29 -70 71 -97 71 -9 0 3
10 27 23 62 31 69 57 66 237 -3 184 -21 223 -113 255 -53 18 -322 21 -324 3z
m273 -148 c15 -19 18 -41 18 -137 0 -106 -2 -116 -23 -137 -19 -18 -33 -23
-73 -22 l-49 1 -1 160 -1 161 55 -2 c44 -1 60 -6 74 -24z m8 -449 c24 -19 24
-22 25 -164 0 -176 -1 -177 -95 -177 l-67 0 0 180 -1 180 57 0 c39 0 63 -6 81
-19z"/>
<path d="M1437 1513 c-3 -5 -5 -34 -6 -65 -1 -40 3 -58 12 -59 6 -1 37 -2 67
-3 l55 -1 3 -473 2 -472 73 0 72 0 0 463 c-1 254 0 467 2 472 2 6 31 10 68 10
36 -1 66 1 66 4 1 3 2 34 3 69 l2 62 -208 0 c-114 0 -209 -3 -211 -7z"/>
</g>
</svg>
